<svg width="65" height="64" viewBox="0 0 65 64" fill="none" xmlns="http://www.w3.org/2000/svg">
<g id="Icons / XXL 64px / Status">
<g id="Icon">
<path id="Fill 1" fill-rule="evenodd" clip-rule="evenodd" d="M33 6C18.6406 6 7 17.6406 7 32C7 46.3594 18.6406 58 33 58C47.3594 58 59 46.3594 59 32C59 17.6406 47.3594 6 33 6Z" fill="#EF3E3E"/>
<g id="Vector">
<path d="M29.75 41.75C29.75 39.9551 31.1995 38.5 32.9875 38.5C34.7756 38.5 36.2251 39.9551 36.2251 41.75C36.2251 43.5449 34.7756 45 32.9875 45C31.1995 45 29.75 43.5449 29.75 41.75Z" fill="white"/>
<path d="M30.0672 22.2339C29.8947 20.5024 31.2491 19 32.9826 19C34.716 19 36.0704 20.5024 35.898 22.2339L34.7624 33.6331C34.671 34.551 33.9015 35.25 32.9826 35.25C32.0636 35.25 31.2942 34.551 31.2027 33.6331L30.0672 22.2339Z" fill="white"/>
</g>
</g>
</g>
</svg>
