<svg width="65" height="64" viewBox="0 0 65 64" fill="none" xmlns="http://www.w3.org/2000/svg">
<g id="Frame 47322">
<path id="Vector" d="M32.4987 58.6654C47.1654 58.6654 59.1654 46.6654 59.1654 31.9987C59.1654 17.332 47.1654 5.33203 32.4987 5.33203C17.832 5.33203 5.83203 17.332 5.83203 31.9987C5.83203 46.6654 17.832 58.6654 32.4987 58.6654Z" fill="#47C751"/>
<path id="Path (Stroke) (Stroke)" fill-rule="evenodd" clip-rule="evenodd" d="M40.8515 21.7604C41.7196 20.7465 43.1272 20.7465 43.9953 21.7604C44.8528 22.7618 44.8634 24.3778 44.0269 25.3943L32.1938 42.6683C32.1767 42.6932 32.1585 42.717 32.1392 42.7396C31.271 43.7535 29.8635 43.7535 28.9953 42.7396L21.1511 33.5788C20.283 32.565 20.283 30.9212 21.1511 29.9073C22.0193 28.8934 23.4268 28.8934 24.295 29.9073L30.5002 37.1541L40.7925 21.8381C40.8108 21.8108 40.8305 21.7849 40.8515 21.7604Z" fill="white"/>
</g>
</svg>
